<?xml version="1.0" encoding="utf-8"?>
<!-- Generator: Adobe Illustrator 25.2.3, SVG Export Plug-In . SVG Version: 6.00 Build 0)  -->
<svg version="1.1" id="Layer_1" xmlns="http://www.w3.org/2000/svg" xmlns:xlink="http://www.w3.org/1999/xlink" x="0px" y="0px"
	 viewBox="0 0 574 800" style="enable-background:new 0 0 574 800;" xml:space="preserve">
<style type="text/css">
	.st0{opacity:0.13;clip-path:url(#SVGID_2_);}
	.st1{fill-rule:evenodd;clip-rule:evenodd;fill:#1572D3;}
</style>
<g>
	<defs>
		<rect id="SVGID_1_" x="-229" y="-33" width="803" height="866"/>
	</defs>
	<clipPath id="SVGID_2_">
		<use xlink:href="#SVGID_1_"  style="overflow:visible;"/>
	</clipPath>
	<g class="st0">
		<path class="st1" d="M143.7,95.8c39.1,0,76.4,7.4,110.7,21l123-80.5C310.1-7.5,229.8-33,143.7-33c-159.3,0-298.3,87.1-372.7,216.5
			l110.9,64.4C-65.9,157,31.8,95.8,143.7,95.8z"/>
		<path class="st1" d="M430.9,722.5L304.2,400L430.9,77.5l-200,130.9L-61.7,400l292.7,191.6L430.9,722.5z"/>
		<path class="st1" d="M143.7,704.2c-111.9,0-209.6-61.1-261.9-152.1l-110.9,64.4C-154.6,745.9-15.6,833,143.7,833
			c86.2,0,166.4-25.5,233.7-69.3l-123-80.5C220.1,696.7,182.8,704.2,143.7,704.2z"/>
		<path class="st1" d="M479.4,129l-58.7,149l-48.1,122l48.1,122l58.7,149c59.2-74.2,94.6-168.4,94.6-271
			C574,297.4,538.5,203.2,479.4,129z"/>
	</g>
</g>
</svg>
