<?xml version="1.0" standalone="no"?>
<!DOCTYPE svg PUBLIC "-//W3C//DTD SVG 20010904//EN"
 "http://www.w3.org/TR/2001/REC-SVG-20010904/DTD/svg10.dtd">
<svg version="1.0" xmlns="http://www.w3.org/2000/svg"
 width="1280.000000pt" height="1148.000000pt" viewBox="0 0 1280.000000 1148.000000"
 preserveAspectRatio="xMidYMid meet">
<metadata>
Created by potrace 1.15, written by Peter Selinger 2001-2017
</metadata>
<g transform="translate(0.000000,1148.000000) scale(0.100000,-0.100000)"
fill="#000000" stroke="none">
<path d="M4605 11400 c-19 -21 -20 -34 -17 -274 5 -505 -35 -831 -123 -1006
-13 -25 -29 -51 -37 -56 -7 -6 -67 -21 -133 -34 -211 -40 -637 -166 -782 -231
-36 -16 -67 -29 -69 -29 -2 0 -36 28 -76 62 -185 157 -389 349 -703 659 -187
185 -350 338 -363 342 -59 15 -87 -89 -86 -313 2 -168 22 -331 66 -515 16 -71
32 -145 34 -163 14 -105 167 -511 246 -653 31 -55 95 -144 72 -100 -4 9 -3 12
4 7 6 -4 9 -13 6 -20 -3 -8 0 -17 7 -22 8 -5 10 -3 5 7 -4 8 3 1 16 -16 34
-45 152 -177 181 -204 l26 -24 -24 -48 c-97 -191 -177 -513 -160 -646 l6 -52
-133 -198 c-232 -343 -358 -505 -568 -728 -141 -150 -184 -204 -220 -275 -63
-126 -77 -248 -60 -520 18 -271 16 -541 -4 -665 -52 -314 -117 -479 -546
-1380 -783 -1644 -965 -2044 -1016 -2235 -30 -112 -18 -314 27 -484 23 -84
182 -514 224 -603 61 -129 91 -169 245 -328 79 -81 163 -179 200 -234 132
-193 298 -273 570 -274 210 -1 386 44 660 168 194 88 274 139 375 240 113 112
154 188 237 434 75 223 121 296 204 329 16 6 106 30 199 52 224 55 442 128
590 199 66 31 244 132 395 223 522 314 719 403 1495 678 228 81 386 142 585
226 121 51 188 24 307 -123 218 -272 392 -584 723 -1294 83 -178 156 -327 163
-331 7 -4 8 -8 2 -8 -5 0 -4 -4 2 -8 7 -5 67 -133 132 -285 125 -290 177 -397
193 -397 19 0 -4 87 -84 320 -266 781 -321 947 -376 1145 -88 314 -132 513
-177 790 -82 511 -93 947 -44 1750 30 502 30 1071 -1 1039 -4 -5 -15 -85 -24
-179 -62 -637 -132 -979 -273 -1345 -140 -362 -313 -604 -541 -756 -228 -152
-464 -233 -1238 -424 -264 -65 -539 -138 -610 -161 -355 -115 -553 -235 -868
-525 -306 -282 -338 -307 -531 -421 -60 -36 -133 -83 -162 -104 -67 -50 -140
-161 -236 -359 -121 -248 -207 -366 -332 -455 -175 -124 -390 -184 -619 -172
-212 11 -306 61 -347 185 -48 148 -77 181 -314 370 -281 224 -381 331 -416
443 -23 74 -24 119 -3 291 17 145 14 249 -12 428 -24 154 -15 254 35 428 23
79 39 147 36 152 -4 6 -1 10 5 10 6 0 9 4 5 9 -11 18 129 372 271 687 187 416
634 1310 648 1297 4 -4 4 1 0 11 -6 15 -4 17 6 11 8 -5 11 -4 7 3 -10 15 3 43
16 35 6 -4 8 0 4 11 -4 9 -3 15 2 12 11 -7 201 343 436 803 105 207 215 417
244 466 108 184 166 316 179 408 4 29 7 99 7 157 -1 103 -2 108 -53 238 -67
170 -71 199 -39 280 38 92 79 156 325 502 124 173 322 462 441 642 217 328
253 371 294 355 29 -11 54 -80 68 -187 18 -142 16 -521 -5 -743 -18 -203 -20
-297 -6 -297 14 0 46 117 75 275 45 243 74 511 85 765 21 513 38 606 129 723
68 89 202 197 244 197 9 0 17 -1 17 -3 0 -1 -13 -41 -30 -88 -46 -132 -62
-222 -63 -349 -2 -255 58 -452 192 -630 57 -76 205 -222 274 -269 50 -34 127
-56 112 -31 -4 7 12 1 37 -14 45 -26 78 -34 78 -17 0 14 -47 79 -145 201 -223
277 -292 421 -302 625 -5 106 -4 115 31 228 47 150 135 324 281 557 141 223
155 240 208 240 53 0 83 -33 167 -181 258 -455 480 -666 595 -566 53 46 67
203 40 457 -42 401 -125 819 -215 1084 -16 49 -27 92 -24 97 3 5 1 9 -5 9 -6
0 -7 7 -4 17 4 9 2 14 -3 11 -5 -4 -10 4 -10 16 -4 53 -157 322 -177 309 -5
-3 -7 -2 -4 4 7 11 -59 102 -116 162 l-32 34 32 -22 c117 -80 300 -381 463
-760 63 -149 283 -752 285 -786 8 -103 152 -417 277 -605 63 -96 236 -279 366
-389 108 -91 93 -52 257 -681 304 -1168 660 -2028 1343 -3240 251 -446 574
-970 598 -970 3 0 2 5 -2 12 -4 7 -3 8 4 4 6 -4 9 -13 6 -20 -3 -8 0 -17 7
-22 8 -4 10 -3 5 4 -4 7 -5 12 -3 12 2 0 26 -33 52 -72 65 -100 177 -248 187
-248 30 0 -41 149 -301 635 -533 993 -791 1579 -1010 2293 -122 396 -205 716
-366 1411 -74 323 -93 416 -83 423 39 24 135 -12 208 -79 67 -59 63 -51 414
-1083 371 -1094 572 -1650 591 -1633 4 5 5 0 2 -9 -3 -9 -2 -18 3 -20 4 -2 31
-59 60 -128 60 -143 125 -276 140 -285 34 -21 -3 134 -169 715 -198 697 -270
976 -335 1305 -41 207 -106 605 -106 651 0 93 106 57 185 -62 39 -58 176 -350
286 -608 226 -527 463 -1158 745 -1986 192 -562 246 -715 255 -718 4 -2 5 -10
2 -18 -3 -8 0 -14 7 -14 6 0 9 -4 6 -9 -4 -5 -3 -11 2 -13 4 -1 34 -79 66
-173 258 -750 379 -1084 471 -1300 83 -195 124 -245 95 -116 -7 31 -91 290
-187 576 -408 1219 -470 1483 -588 2480 -47 397 -77 584 -120 757 -14 53 -25
99 -25 101 0 12 50 -2 78 -21 58 -42 410 -456 782 -922 534 -668 753 -905
1035 -1121 276 -212 660 -386 1090 -493 266 -67 406 -81 413 -43 2 11 -3 17
-14 17 -10 0 -15 2 -12 5 3 3 74 -6 158 -20 134 -22 176 -25 159 -12 -2 2 -53
25 -114 52 -583 255 -932 436 -1270 660 -461 304 -860 677 -1242 1157 -101
126 -166 213 -583 773 -354 476 -526 684 -794 963 l-154 161 -12 88 c-33 251
-62 334 -148 418 -104 102 -225 156 -367 163 -85 4 -93 2 -148 -27 l-57 -30
-128 84 c-118 78 -130 88 -178 162 -104 158 -250 303 -403 401 -135 87 -311
148 -391 136 -34 -5 -36 -3 -75 58 -54 87 -199 234 -303 308 -53 38 -189 112
-348 191 l-262 129 -55 123 c-30 67 -112 257 -182 422 -231 547 -360 781 -507
921 -124 118 -276 176 -323 124z m-1885 -2210 c10 -8 166 -241 183 -275 13
-25 13 -34 2 -55 l-13 -24 -31 50 c-37 58 -201 384 -201 399 1 5 13 -12 27
-40 14 -27 29 -52 33 -55z m200 -7815 c0 -2 -13 -11 -30 -20 -16 -8 -47 -30
-67 -47 -25 -21 -31 -24 -18 -9 11 13 40 37 64 53 47 29 51 31 51 23z"/>
<path d="M4389 6949 c-100 -8 -310 -51 -367 -75 -40 -16 -39 -25 8 -56 30 -21
35 -29 32 -59 -3 -29 8 -51 56 -125 107 -163 207 -228 352 -227 127 1 202 43
373 206 71 68 97 100 97 118 0 13 9 30 20 37 27 17 25 54 -6 91 -56 67 -325
110 -565 90z"/>
<path d="M1354 2717 c-3 -8 5 -38 17 -68 12 -30 25 -81 30 -114 4 -33 13 -85
19 -115 16 -83 5 -119 -71 -239 -82 -132 -118 -202 -153 -299 -32 -89 -32
-100 -4 -154 26 -51 34 -58 71 -58 37 0 69 35 96 106 31 81 80 143 145 184
174 108 183 117 205 218 16 74 6 142 -33 228 -56 123 -175 267 -250 303 -49
24 -65 26 -72 8z"/>
</g>
</svg>
