<svg xmlns="http://www.w3.org/2000/svg" viewBox="0 0 391.91 446"><defs><style>.cls-1{fill:#222220;}</style></defs><g id="Layer_2" data-name="Layer 2"><g id="OBJECTS"><path class="cls-1" d="M190,279.42c.12.1.11.13,0,.09a37.79,37.79,0,0,1-12-5.41.28.28,0,0,0-.38.07l0,.05q-4.72,10.84-8.81,22-1.69,4.65-3.19,8.83A308.21,308.21,0,0,0,154.3,344.1a201.68,201.68,0,0,0-4.48,46.17,131.32,131.32,0,0,0,2.86,25.58A73.7,73.7,0,0,0,161,437.34a41.61,41.61,0,0,0,6.46,8.42c.11.11.09.17-.07.18a36.84,36.84,0,0,1-5.73-.1,114.32,114.32,0,0,1-37.61-11.16,148,148,0,0,1-35.18-24.25,116.73,116.73,0,0,1-16.35-18.55c-.85-1.2-1.7-2.54-2.54-4A106.44,106.44,0,0,1,51.91,355a88.7,88.7,0,0,1-4.33-19.67c2.26,6.32,4.59,12.51,7.26,18.54q3.48,7.9,7.62,15.44a94.28,94.28,0,0,1-2.14-10.07q-1.07-6.74-1.72-13.53c-1-2-2-4.11-2.8-6.23a92.79,92.79,0,0,1-4.94-16.62,74.93,74.93,0,0,1-1.45-17.22c1.42,5.59,2.83,11.07,4.5,16.46q1.91,6.18,4.18,12.22c0-2,0-4,.16-6,.2-3.37.49-6.72.85-10.06-.61-2.11-1.17-4.23-1.64-6.37a95.5,95.5,0,0,1-2.22-18.13,78.74,78.74,0,0,1,1.53-18.14c.41,6.05.85,12,1.6,17.9q.87,6.93,2.22,13.75c.14-.89.27-1.79.43-2.68q1.13-6.47,2.87-13.68a114.42,114.42,0,0,1-1.55-20.82,96.06,96.06,0,0,1,2.55-20.84c0,7,.1,13.9.58,20.77.25,3.62.59,7.22,1,10.82q1.2-4.33,2.67-8.8c.53-1.62,1.08-3.23,1.63-4.84-.2-2.39-.34-4.78-.38-7.18a99.94,99.94,0,0,1,1.42-18.28,81.4,81.4,0,0,1,5-17.56c-.75,6-1.47,12-1.89,17.95q-.54,7.47-.54,14.92c1.48-4,3-7.95,4.6-11.89l.82-2.27c0-3,.18-6.08.49-9.1a91.28,91.28,0,0,1,3.79-18.3,76.1,76.1,0,0,1,7.67-16.94c-1.75,5.94-3.37,11.81-4.63,17.75a167.44,167.44,0,0,0-2.85,17.9c1.26-1.76,2-2.8,2.15-3.12A28.64,28.64,0,0,0,89,224.72c.62-2.3.94-3.45.94-3.47a292.46,292.46,0,0,1,18.92-46.61,87.08,87.08,0,0,1,5.56-9.39q.75-1.11-.36-.36a8.48,8.48,0,0,0-2,1.9l-1.57,2c-2.52,2.94-5,5.88-7.53,8.83q-3.39,4-5.86,7.35-5.43,7.4-9.46,13.92Q83.23,206.21,76.86,218a252.4,252.4,0,0,0-20.68,50.68q-5.7,19.9-8.56,34.66Q45.57,314,44.44,324.75q-.07.66-.36.54a.36.36,0,0,1-.18-.37A303.17,303.17,0,0,1,48,281.64c.48-2.88,1.07-5.95,1.76-9.23q3.78-17.94,8.68-34.4a217.69,217.69,0,0,1,8.08-22.39,195,195,0,0,1,20.79-37.2q5.83-8.25,9.85-13.07a306.66,306.66,0,0,1,24.08-25.73,219.49,219.49,0,0,1,24.4-19.89c2.18-1.54,4.08-2.83,5.7-3.89q1.57-1,5.87-3.62a193.26,193.26,0,0,1,55-22.71,107.82,107.82,0,0,1,10.61-2q.46-.08.21.33a31.85,31.85,0,0,1-4.38,5.41c-1.6,1.58-3.12,3.22-4.59,4.92a32.14,32.14,0,0,0-7.87,19.07,22.52,22.52,0,0,0,1,8.65,8.25,8.25,0,0,0,1.5,2.88,6.32,6.32,0,0,0,2.77,1.89.84.84,0,0,1,.53,1.06v0a30.76,30.76,0,0,1-6.4,10.37,7.12,7.12,0,0,1-2.74,1.55,100.91,100.91,0,0,0-15.53,7.09q-2.49,1.41-6.44,3.81c-2.47,1.49-4.55,2.85-6.26,4.08a113.89,113.89,0,0,0-25.3,25A186.39,186.39,0,0,0,124,231c-1,2.83-2.05,5.78-3.08,8.88q-2,5.92-3.4,11.41-1.94,7.39-3.08,11.68a268.33,268.33,0,0,0-6.15,30c-.53,3.62-1,6.72-1.26,9.32a207.51,207.51,0,0,0-1.26,28.46,119.46,119.46,0,0,0,.81,12.69,202.32,202.32,0,0,0,11.79,45.79A115.55,115.55,0,0,0,126.86,407a136,136,0,0,0,15.24,20.84,91.6,91.6,0,0,0,12.52,11.67c.14.11.16.09,0-.05q-6.24-7.95-12.17-16.14A105.51,105.51,0,0,1,129.73,400a255.6,255.6,0,0,1-14.06-48.79,223,223,0,0,1-3.08-30.17A209.52,209.52,0,0,1,123,247,149.51,149.51,0,0,1,131.49,226a181.41,181.41,0,0,1,31.66-44.61q6.69-6.94,14-13.23,3.45-3,8.3-6.4a21,21,0,0,0,3-2.63.26.26,0,0,1,.17-.09c.12,0,.13.09,0,.29a55.22,55.22,0,0,0-2.3,5.37c-.12.31-.75,2.15-1.91,5.51a281.74,281.74,0,0,0-8.26,29.15,124.51,124.51,0,0,0-2.91,36.41,86.21,86.21,0,0,0,1.13,9.32,87.52,87.52,0,0,0,10.36,28A21.24,21.24,0,0,0,190,279.42Zm201.41,80.29a36,36,0,0,1-2.33,8.07,54.07,54.07,0,0,1-6.24,11.15q-7.19,9.87-14.49,18.06-4.08,4.59-7,8.4s-.31.42-.88,1.21a11.72,11.72,0,0,1-9.38,5,14.23,14.23,0,0,1-7.83-1.92.27.27,0,0,0-.35.08,4.38,4.38,0,0,1-2.21,1.6,12.23,12.23,0,0,1-4.45.68,69,69,0,0,1-9.62-.95,44.85,44.85,0,0,1-16.37-6.35,14.83,14.83,0,0,1-3.92-3.36,26.5,26.5,0,0,1-4-7.31q-2-5.64-3.56-11.47a73.58,73.58,0,0,1-2.32-20.42,2.81,2.81,0,0,0-.48-1.64q-3.59-5.3-7.72-10.39-13.45-16.56-26.72-33.28a23.2,23.2,0,0,0-3.88-4.12,4.66,4.66,0,0,0-2.68-.55q-8,.06-16-.14a34.84,34.84,0,0,1-15.26-3.83,36.87,36.87,0,0,1-7.65-5.41c-1.3-1.17-2.52-2.39-3.7-3.64-1.46-1.28-3-2.51-4.37-3.92a77.4,77.4,0,0,1-8-9.06c-1.15-1.65-2.39-3.27-3.44-5L195,278.64,193.5,276c-.51-.88-1-1.77-1.42-2.69l-1.34-2.72c-.79-1.86-1.68-3.7-2.36-5.61l-1.08-2.84-1-2.89c-.67-1.92-1.13-3.9-1.69-5.85a151.48,151.48,0,0,1-3.77-23.62c-.34-3.91-.64-7.79-.78-11.81-.06-2-.09-4-.05-6.06s.22-4.1.34-6.14A86.93,86.93,0,0,1,186.06,182a79.28,79.28,0,0,1,12.29-20.83,67.12,67.12,0,0,1,11.85-11.08,44,44,0,0,1,6.8-6.21q4.29-3.24,8.75-6.2a80.56,80.56,0,0,0,12.22-10c.41-.41.41-.54,0-.38a1,1,0,0,0-.21.1,6.46,6.46,0,0,1-3.34,1.2,2.89,2.89,0,0,1-2.6-1.42.55.55,0,0,0-.36-.22c-1.09-.13-2.17-.28-3.25-.46-.42-.06-.47-.2-.16-.4a.71.71,0,0,1,.31-.1,8.74,8.74,0,0,0,3.68-1.19,78.18,78.18,0,0,0,14.19-11.31,4.17,4.17,0,0,0,1.05-1.6.54.54,0,0,0-.34-.68h0c-1.69-.53-1.44-.82.73-.85a.76.76,0,0,0,.69-.45c.12-.27,0-.48-.43-.63-.14,0-.14-.11,0-.19a11,11,0,0,0,3.09-2.62l1.23-1.52,1.87-2.12c.12-.13.09-.19-.07-.18a.61.61,0,0,0-.33.1,33.57,33.57,0,0,1-6.1,3.3c-.75.31-2.36,1.16-4.85,2.54a12.42,12.42,0,0,1-4.53,1.33.63.63,0,0,0-.4.19,37.73,37.73,0,0,1-7.41,6.12c-2.35,1.39-4.74,2.72-7.15,4a14.31,14.31,0,0,1-2.78,1.12,5.41,5.41,0,0,1-3,0,4.56,4.56,0,0,1-2.36-1.61A6.41,6.41,0,0,1,214,114a32.11,32.11,0,0,1,4.66-10.49q3.06-4.51,5.79-9.25a31.18,31.18,0,0,0,3.26-8.11c.48-1.94,1-3.86,1.67-5.75a5.68,5.68,0,0,0,.07-2.37,6.35,6.35,0,0,1,.08-2.3,26.59,26.59,0,0,1,3-7.18c1.44-2.37,2.28-3.79,2.51-4.24q1.4-2.73,2.73-5.49l2.3-4.7a116.08,116.08,0,0,0,7.46-19.34,58.35,58.35,0,0,1,4.5-11.4,46.63,46.63,0,0,1,5.2-7.8A58,58,0,0,1,276.69.07c.29-.14.37-.07.23.22a20.06,20.06,0,0,0-1.16,2.93L275,5.83a49,49,0,0,0-1.52,25.53q.39,1.94,1.53,6.36s.5,1.79,1.48,5.34a94.82,94.82,0,0,1,2.12,9.56,24.69,24.69,0,0,1,.26,5.79c0,.19.06.23.23.14a22.21,22.21,0,0,1,6-2.37q3.8-.9,9.48-1.71a23.7,23.7,0,0,0,5.4-1.53,13.6,13.6,0,0,0,6.67-5.65q4.94-8,9.93-16a28.11,28.11,0,0,1,18.6-13.1,2.17,2.17,0,0,1,1.92.29,2.18,2.18,0,0,1,.37,2.56,103.44,103.44,0,0,0-5,20.68,111.36,111.36,0,0,1-1.95,11.4A136.27,136.27,0,0,1,326.29,67a48.42,48.42,0,0,1-3.85,8.56,33.48,33.48,0,0,1-7.57,8.76,5.59,5.59,0,0,1-2.56,1c-.15,0-.15,0,0,.09a81.64,81.64,0,0,0,11.53,1.84,30.65,30.65,0,0,0,6.7-.13c.78-.1.84.07.19.51A32,32,0,0,1,321,92a23.5,23.5,0,0,1-3.62.15c-.15,0-.17,0-.05.15a45.1,45.1,0,0,1,4.23,4.18,46.13,46.13,0,0,0,14.73,11.13,13.37,13.37,0,0,0,5.15,1.3c.16,0,.16,0,0,.1a13,13,0,0,1-5.19,1.07,35.35,35.35,0,0,1-8.69-.93,11.23,11.23,0,0,1-4.91-2.74c-.47-.43-.54-.37-.23.18a19.07,19.07,0,0,0,4.48,5.32l3.34,2.27a23.74,23.74,0,0,1,7.54,8.35,3,3,0,0,1,.15.32c.51,1.22.37,1.3-.44.22a24.71,24.71,0,0,0-2.54-2.87,8,8,0,0,0-4.82-2.24c-.66-.07-.71.07-.15.43a18.6,18.6,0,0,1,5.39,5.36,34.17,34.17,0,0,1,3.06,6.81c1.24,3.46,2.51,6.9,3.78,10.35.13.34.06.38-.21.14a13.75,13.75,0,0,1-2.67-3.26c-.49-.84-.62-.79-.38.14a4.31,4.31,0,0,0,.79,1.57,21.69,21.69,0,0,0,5.71,5c.15.09.14.16,0,.2a1.74,1.74,0,0,1-1.07-.08,16.17,16.17,0,0,1-6.64-4.52,44.51,44.51,0,0,1-4.85-6.43c-.1-.18-.2-.26-.29-.26s-.15.14-.12.29,0,.05,0,.07a23.1,23.1,0,0,1,1.66,5.92q0,4.11,0,8.22a23,23,0,0,0,5.88,15.48q1.31,1.49,8.06,7.44a26,26,0,0,1,7.28,10.43,21,21,0,0,1-.67,16.89q-1.25,2.66-2.55,5.28a49.31,49.31,0,0,0-3.11,8,22.73,22.73,0,0,0-.7,9.32,71.39,71.39,0,0,0,2.35,11.12q2.47,8.32,5.42,16.5,2.4,6.66,3.18,8.85,1.88,5.29,5.35,14.86,8.1,22.27,14.94,45a32.79,32.79,0,0,0,4.86,10.31,52.4,52.4,0,0,1,3.12,4.55,19.86,19.86,0,0,1,2,5.08,70.63,70.63,0,0,1,2.21,14.24A40.06,40.06,0,0,1,391.44,359.71ZM324.87,136l3.24,10.87c0,.15.06.15.06,0a27.3,27.3,0,0,0-2.86-11,.5.5,0,0,0-.32-.29C324.8,135.47,324.76,135.63,324.87,136Zm-9.66-16.76a21.14,21.14,0,0,1-4.28-3.26,32.38,32.38,0,0,0-4.27-4,8.56,8.56,0,0,0-5.79-1.58,13.34,13.34,0,0,1,4.64,3c1.27,1.25,2.35,2.8,3.79,4.24a14.35,14.35,0,0,0,5.15,3.27,11.94,11.94,0,0,0,5.93.65A28.31,28.31,0,0,1,315.21,119.22Zm-9.08-21c-2.4-1.39-4.61-3.13-7-4.73A22.59,22.59,0,0,0,291,89.81a12.9,12.9,0,0,0-4.51-.11,8.54,8.54,0,0,0-4.06,1.75,12.37,12.37,0,0,1,8.13.12,29.82,29.82,0,0,1,7.25,3.85,48.07,48.07,0,0,0,7.49,4.42,13.46,13.46,0,0,0,8.67,1.07A18.28,18.28,0,0,1,306.13,98.22Zm13.79-26.36a13.6,13.6,0,0,1-7.57,4.29,26.92,26.92,0,0,1-6.2.5A16.78,16.78,0,0,1,300,75.26c-.85-.37-.89-.29-.11.21a33.23,33.23,0,0,1,6.27,5.4.36.36,0,0,0,.39.1,47.93,47.93,0,0,0,7.79-3.77,18.7,18.7,0,0,0,5.77-5.15.51.51,0,0,0,.07-.15C320.25,71.61,320.17,71.59,319.92,71.86Zm-34.21-7.62c0,.15.14.21.41.18l.46-.07a33.65,33.65,0,0,0,12-3c.16-.07.23,0,.21.13a.89.89,0,0,1-.46.66,48.27,48.27,0,0,0-6,4.26,17.68,17.68,0,0,1-4.67,2.73c-.16.06-.22.13-.17.2s.14.08.26,0a10.28,10.28,0,0,1,5.53-.17,12.78,12.78,0,0,0,4.57.26A20.18,20.18,0,0,0,313.6,59.21a30.11,30.11,0,0,0,3.67-9.64c.66-3.41,1-5.48,1.15-6.23a28,28,0,0,1,4.2-11c1.42-2.21,2.51-3.84,3.29-4.89a.53.53,0,0,0,.12-.35c0-.21-.15-.19-.36.06a42,42,0,0,0-3.22,4.07q-2.16,3.06-11.75,18.58a25.59,25.59,0,0,1-12,10.43A59.26,59.26,0,0,1,286,64C285.83,64,285.7,64.12,285.71,64.24ZM261.19,91.57a1,1,0,0,0,.72-.65c0-.12.1-.24.14-.36A32,32,0,0,1,268.21,86a28.29,28.29,0,0,1,7.59-2.9,63.12,63.12,0,0,0,8.28-2.2,17,17,0,0,0,3.9-2.09,10.26,10.26,0,0,0,2.92-3.24,17.12,17.12,0,0,1-7.37,3.6c-2.65.67-5.44,1-8.27,1.69a21.75,21.75,0,0,0-8,3.61,19.51,19.51,0,0,0-4.76,4.92q3.72-10,7.88-19.9A32.39,32.39,0,0,0,272.91,58a35.07,35.07,0,0,0-.6-6.92q-.6-3.42-1.44-6.81c-.11-.41-.21-.52-.32-.34a.42.42,0,0,0,0,.28,38.07,38.07,0,0,1,.54,7,84.57,84.57,0,0,1-7.16,27.46,51.12,51.12,0,0,0-3.71,12.15C260.06,91.51,260.4,91.77,261.19,91.57Zm-7-1.83q.43-5.07,1.27-10.11c0-.06,0-.13.07-.2s.08-.28-.06-.24a.31.31,0,0,0-.17.21Q253.8,85,251.93,90.51a28.22,28.22,0,0,1-2.47,5.23,52.76,52.76,0,0,1-6.07,8.28c-.2.22-.17.24.07.08a49.44,49.44,0,0,0,4.63-3.63c1.74-1.54,2.76-2.48,3-2.81A10.42,10.42,0,0,0,253.27,94,17.73,17.73,0,0,0,254.16,89.74ZM231.21,247.17a132.77,132.77,0,0,0,20.36,16.26c4.42,2.89,9,5.56,13.59,8.07l.72.72a114.27,114.27,0,0,0,15.9,12.51q4.5,3,9.05,5.78a147.75,147.75,0,0,1,24.75,19.3,21.58,21.58,0,0,1,3.86,4.92q.44.75.39-.12a29.42,29.42,0,0,0-.46-4.09,85.65,85.65,0,0,0-3.52-13.11,51.56,51.56,0,0,0-3.83-8.57,49.05,49.05,0,0,0-7.15-9.56,14,14,0,0,0-3.86-2.94,196.24,196.24,0,0,0-22.93-9.44.28.28,0,0,1-.18-.31q.92-6.42,1.05-9.2a53.49,53.49,0,0,0-2-17.3,18.43,18.43,0,0,0-5.93-9.23,104.34,104.34,0,0,0-8.47-6.57,56.52,56.52,0,0,1-7.65-6.15,51.21,51.21,0,0,1-6-7.19,95.34,95.34,0,0,1-10.12-18.36,21.24,21.24,0,0,0-1.22-2.49,3.73,3.73,0,0,0-2.81-1.91,1.16,1.16,0,0,1-.38-.15c-.16-.12-.14-.16.07-.14a34,34,0,0,0,7.6-.29,55.69,55.69,0,0,1,7.64-.49,24.11,24.11,0,0,1,13.89,4.36c.55.37.67.34.36-.11a.83.83,0,0,0-.16-.17,18,18,0,0,0-4.61-3,102.46,102.46,0,0,0-11.24-3.8,18,18,0,0,0-4.94-.69c-2.19,0-4.39,0-6.58,0q-.37,0-.18-.15a.26.26,0,0,1,.14-.06q3.69-.71,7.36-1.59a27.57,27.57,0,0,1,8.54-.68q5.94.45,11.87,1a30.46,30.46,0,0,1,10.25,2.9,18.32,18.32,0,0,1,3,1.87,35.1,35.1,0,0,1,2.74,2.3q4.4,4.13,9,8a18.94,18.94,0,0,1,2.73,2.79,8.75,8.75,0,0,1,1.86,7.24,7.29,7.29,0,0,1-2.88,4.88,61.22,61.22,0,0,1-6.31,3.94c-.14.08-.13.14,0,.2l.51.23a.74.74,0,0,1,.33.3,8.17,8.17,0,0,1,.91,2.53,78.54,78.54,0,0,0,8.75,25.39q3.25,5.94,5.09,10a111.48,111.48,0,0,0,10.75,19q2.37,3.33,6.63,8.75a68.23,68.23,0,0,1,14.22,34,17.52,17.52,0,0,1,0,4.57,31.75,31.75,0,0,1-1,4.51c-.05.15,0,.19.13.12a36.33,36.33,0,0,1,10.59-3.69.51.51,0,0,1,.6.41.54.54,0,0,1,0,.18,3.12,3.12,0,0,1-.85,1.67c-.16.18-.13.22.09.14a2.36,2.36,0,0,0,1.66-1.55,10.47,10.47,0,0,0-.05-2,28.91,28.91,0,0,0-.9-5.53,388.13,388.13,0,0,0-12.87-38.45q-2.53-6.48-2.8-7.09a60.84,60.84,0,0,0-3.37-6.86,40.94,40.94,0,0,0-10.16-11.68,118.14,118.14,0,0,1-12-11.47,63.46,63.46,0,0,1-10.83-15.85,13.45,13.45,0,0,0,3.58,3.18c3.14,1.9,6.51,2.76,9.33,4a33,33,0,0,1,7.89,5.13c2.47,2.09,4.75,4.51,7.16,7a27.07,27.07,0,0,0-5-9.1,23.59,23.59,0,0,0-8.48-6.53c-3.35-1.46-6.64-2-9.53-3.2a15,15,0,0,1-4-2.31,9,9,0,0,1-2.82-3.88,5.78,5.78,0,0,0,0,1.38c-.24-.6-.48-1.2-.71-1.81a.71.71,0,0,1,.39-.89,15.77,15.77,0,0,0,6.46-4.87q4.67-6,.34-12.3a25.29,25.29,0,0,0-4.06-4.53Q281.49,187,273,180.42a18.71,18.71,0,0,0-4.12-2.48,44.46,44.46,0,0,0-5.16-1.82q-3-.84-3.75-1.14a36.89,36.89,0,0,1-3.59-1.58q-.33-.17,0-.09c1.3.27,2.61.51,3.91.72a17,17,0,0,0,4,.18c1.77-.13,3.33-.29,4.68-.49,2.08-.31,4-.54,5.81-.71q3.45-.31,5.84-.4a48.24,48.24,0,0,1,16.75,2.33c1.5.49,3,.95,4.52,1.39.34.1.38,0,.11-.2q-2-1.75-4-3.38a26,26,0,0,0-7.5-4.21,36,36,0,0,0-5.39-1.28q-4-.7-5.49-.8-4.1-.24-21.39-.66a24.39,24.39,0,0,1-7-1l-7.28-2.48a4.87,4.87,0,0,0-1.65-.26.53.53,0,0,1-.38-.13c-.23-.21-.11-.29.37-.24a7.4,7.4,0,0,0,2.57-.18,62.71,62.71,0,0,0,18.34-7.78,36,36,0,0,0,6.21-5.17A25.64,25.64,0,0,0,275,140.1c.35-.87.72-1.75,1.1-2.61a.5.5,0,0,0,0-.16c0-.18-.11-.16-.25.06a23.36,23.36,0,0,1-9.73,8.59,52.72,52.72,0,0,1-8.94,2.85A94.35,94.35,0,0,1,245.61,151c-.15,0-.17,0-.06-.13a7,7,0,0,0,1.42-1.83,26,26,0,0,0,1.62-4.38,7.92,7.92,0,0,0,.35-3.22,6.6,6.6,0,0,0-1.3-3.09.24.24,0,0,0-.33,0h0a58.83,58.83,0,0,0-8.48,8c-1,1.09-1.34,1-1.18-.22a6.73,6.73,0,0,0,0-.85,14.67,14.67,0,0,1,3.13-9.58c.09-.12.07-.15-.06-.07a30,30,0,0,1-6.27,2.57q-3.88,1.09-4.76,1.46a33.7,33.7,0,0,0-7.33,4.28.64.64,0,0,1-.26.13l-.28.08a.19.19,0,0,0-.13.22s0,0,0,0q3.44,5.9,6.58,12a129,129,0,0,1,6.93,15.86,17.19,17.19,0,0,1,1,4.38,5.44,5.44,0,0,1-.69,3.36,7.82,7.82,0,0,1-2.57,2.51,1.18,1.18,0,0,1-1.93-.55,24.23,24.23,0,0,1-1.94-5.68c-.13-.58-.27-.59-.42,0a29.11,29.11,0,0,0-.88,9.29,42.26,42.26,0,0,0,2.1,10.11q1.2,3.72,2.64,7.33.84,2.15,3.14,7.11,1.86,4,3.6,8c.78,1.81,2,4.48,3.62,8,1.22,2.63,2.35,5.29,3.41,8q.85,2.19,2.56,7.77,1,3.33,2.55,7.78a56.14,56.14,0,0,0,9,16.56q-3.59-2.59-7.1-5.24a195.66,195.66,0,0,1-19.39-16.53,116.18,116.18,0,0,1-16-19.56,89.62,89.62,0,0,1-10.7-23.11,65.07,65.07,0,0,0,8.09,24.66A92.18,92.18,0,0,0,231.21,247.17Zm44.9-41.48c-.68.18-1.31.38-1.93.58-1.14.37-2.21.77-3.26,1.21s-2.11.88-3.18,1.41a26.75,26.75,0,0,0-3.41,1.94,7.85,7.85,0,0,0,4,1,10.89,10.89,0,0,0,7.42-3,8.77,8.77,0,0,0,1.61-2.14,34,34,0,0,1,3.07,2.86,16.6,16.6,0,0,0-5.61-8.29,19.41,19.41,0,0,0-9.46-4.12,91.57,91.57,0,0,0-9.67-.53,21,21,0,0,1-9-2.12,10.59,10.59,0,0,0,3.78,3.33,18.52,18.52,0,0,0,4.78,1.78c3.31.76,6.55.87,9.52,1.35a24.5,24.5,0,0,1,8.34,2.81A27.77,27.77,0,0,1,276.11,205.69Zm57.82,198.42a69.58,69.58,0,0,1-11.67-13.33q-4.53-6.72-9-13.49a183.85,183.85,0,0,0-14.72-19.45c-.13-.16-.2-.13-.2.07a8.74,8.74,0,0,0,2.57,6.27,137.88,137.88,0,0,1,16.64,20.74q3,4.6,6.33,9a56.35,56.35,0,0,0,9.8,10.2C335.27,405.32,335.34,405.31,333.93,404.11Zm8.73-9.08a5.29,5.29,0,0,1-2.74-2.19c-.68-.95-1.26-2-1.88-3.11a30.34,30.34,0,0,1-3-6.41,19.46,19.46,0,0,1-.58-6.72c.16-2.32.44-4.83.74-7.17a27.21,27.21,0,0,1,1.63-6.65,13.24,13.24,0,0,1,3.73-5.27,16.08,16.08,0,0,1,6.17-2.78,14.17,14.17,0,0,1,7.12-.13,12.17,12.17,0,0,0-7.39-1.74,21.42,21.42,0,0,0-3.87.58,13.11,13.11,0,0,0-3.78,1.6,15,15,0,0,0-5.31,6.24,26,26,0,0,0-2.11,7.63,65.47,65.47,0,0,0-.58,7.58,19.63,19.63,0,0,0,1.37,7.86,25,25,0,0,0,4.27,6.47,27.15,27.15,0,0,0,2.63,2.76A5.28,5.28,0,0,0,342.66,395Zm13.18-16.75a21.6,21.6,0,0,0-1.57-4.86,35,35,0,0,0-5.15-8.31c.7,3.21,1.54,6.26,2.29,9.3s1.22,5.93.62,8.42-2.32,4.73-4.68,5.13a6.87,6.87,0,0,1-3.93-.56,15.79,15.79,0,0,1-3.93-2.49,10.17,10.17,0,0,0,2.93,4.09,8.13,8.13,0,0,0,5.12,2,7.74,7.74,0,0,0,5.42-2.27,10.37,10.37,0,0,0,2.8-5A13,13,0,0,0,355.84,378.28ZM374,364.22a49,49,0,0,0-1.79-7.08,57.45,57.45,0,0,0-10.67-19.3A94.11,94.11,0,0,0,352,328a.37.37,0,0,0-.52,0l0,0a6.26,6.26,0,0,1-1.36,1.56l-.78.63a156,156,0,0,1-12,10q-4.38,2.87-8.68,5.85c-.13.1-.15.07-.08-.07a12.21,12.21,0,0,1,1.11-1.65,10.26,10.26,0,0,0,1.18-1.85,32.9,32.9,0,0,1,7.94-10.53c.11-.1.1-.11,0,0a24.66,24.66,0,0,1-10.19,2.58.3.3,0,0,0-.27.24,17.34,17.34,0,0,1-2.13,6.17,69.81,69.81,0,0,1-4.37,6,4.43,4.43,0,0,0-.82,1.42,3.44,3.44,0,0,0,0,1.69c.12.56.05.74-.22.54a.57.57,0,0,1-.19-.29,55.45,55.45,0,0,1-2-7.92,5.44,5.44,0,0,0-.56-1.78,2.72,2.72,0,0,0-1.6-1.14,7.74,7.74,0,0,1-4.39-3,60.18,60.18,0,0,1-5.47-9.42q-2.43-5.18-4.92-10.32a27.15,27.15,0,0,0-4.87-7.19,44.87,44.87,0,0,0-7.87-6.35,23,23,0,0,0-6.34-2.77,45.42,45.42,0,0,0-8.14-2.25,49,49,0,0,0-14.61-.35c-4.83.59-9.43,1.73-14,2.47a51.28,51.28,0,0,1-6.88.72c-2.32,0-4.65.07-6.78-1.09a7.65,7.65,0,0,0,3.06,2,20.42,20.42,0,0,0,3.57.94,35.38,35.38,0,0,0,7.33.41c4.88-.2,9.58-1.11,14.17-1.66a74.86,74.86,0,0,1,10.59-.56,21.91,21.91,0,0,0,2.57,5.23,14.45,14.45,0,0,0,4.06,3.81A34.29,34.29,0,0,1,282,314c1.81,1.76,3.2,3.18,4.15,4.25a26.33,26.33,0,0,1,4.57,6.85,47.84,47.84,0,0,1,3.71,13.59.29.29,0,0,0,.3.25,61.63,61.63,0,0,1,7.07.05,23.94,23.94,0,0,1,9.47,2.65,11.34,11.34,0,0,1,6,7.48c.77,3,1.48,5.93,2.11,8.93a24.78,24.78,0,0,0,1.73,5.88c1.09,2,2.07,4,2.95,6.07q.86,2,.54-.15a25.12,25.12,0,0,1,1.88-14.22,17.19,17.19,0,0,1,4.1-5.76,26.52,26.52,0,0,1,6-4,25.66,25.66,0,0,1,4.59-1.86,3.44,3.44,0,0,1,1.91,0,17.21,17.21,0,0,1,1.84.74,37.78,37.78,0,0,0,8.49,2.65,7.18,7.18,0,0,0,4.76-.64,1.7,1.7,0,0,0,1-1.87c0-.3,0-.33.23-.09a30,30,0,0,1,5.29,9.6q2.08,6.36,3.93,12.78a31.49,31.49,0,0,0,1.22,3.6q.73,1.75,1.62,3.45a19.92,19.92,0,0,1,1.78,4.71c.18.77.33.76.45,0a68.35,68.35,0,0,0,.74-7.41A33.63,33.63,0,0,0,374,364.22Zm6.17-25.4A32.65,32.65,0,0,0,379,333.2l-.81-2.67q-7.31-25.93-15.47-51.62c-1-3-2-6-3-8.9q-4.35-11.85-6.84-17.79-4.2-10-7.17-19.26a101.75,101.75,0,0,1-4.46-22.41q-.59-6.84-.59-6.87c-.25-2.47-.52-4.94-.78-7.41q-.83-7.62-1.16-9.32a40.39,40.39,0,0,0-6.2-14.76c-.74-1.1-.58-1.25.47-.44a127.68,127.68,0,0,0,15,9.75c.37.21.46.12.29-.26a42.79,42.79,0,0,0-7.95-11.82,69.94,69.94,0,0,1-6.54-7.69,53.38,53.38,0,0,1-5-9.67,23.29,23.29,0,0,0-2.74-5,57.57,57.57,0,0,0-8.72-9.37,19.06,19.06,0,0,1-4.6-5.87c-.07-.14-.13-.19-.19-.16s-.08.13,0,.24q1.44,4.92,3.24,9.72a7.34,7.34,0,0,0,1.51,2.51,23.27,23.27,0,0,0,4.61,3.72c.32.21.34.32,0,.33a.43.43,0,0,1-.22,0c-1.74-.68-3.48-1.35-5.23-2a16.5,16.5,0,0,1-4.83-2.84,34.88,34.88,0,0,1-4.28-4.16.39.39,0,0,1-.1-.16c-.18-.42-.27-.4-.26,0a.49.49,0,0,0,.05.2,16.33,16.33,0,0,0,6.35,6.19,8,8,0,0,1,2.13,1.58,1,1,0,0,1,.2.36c.13.46,0,.56-.45.29-.26-.16-1.06-.52-2.39-1.08a60.13,60.13,0,0,1-8.43-4.38,14.49,14.49,0,0,1-2.72-2.1,12.22,12.22,0,0,1-2-2.83,32.47,32.47,0,0,1-3.19-8.88c-.07-.34-.2-.36-.37-.06a27.9,27.9,0,0,0-3.52,9.69A7.29,7.29,0,0,0,293,142c.19.48.08.55-.32.23a4.57,4.57,0,0,1-1.64-3.61,19.49,19.49,0,0,1,.43-4.38,32.53,32.53,0,0,0,.58-3.94.32.32,0,0,0-.18-.34c-.21-.08-.35.06-.42.4a17.05,17.05,0,0,1-1,3.12,23.16,23.16,0,0,0-1.29,3.93,14.76,14.76,0,0,0-.44,4.09,11.1,11.1,0,0,0,6,9.54,58.57,58.57,0,0,0,6.92,3.11,4.08,4.08,0,0,1,1.6,1,4.31,4.31,0,0,1,.85,1.8A66,66,0,0,0,308,168.06a236.23,236.23,0,0,0,12.88,24.7,92.8,92.8,0,0,1,9.14,20.81,488.77,488.77,0,0,0,20.46,54.85q12.27,27.81,22.46,56.46,2.55,7.11,5.41,14a.7.7,0,0,0,.46.4C379.8,339.51,380.25,339.36,380.19,338.82Zm-109-68.91c.13.15.21.13.24,0a.56.56,0,0,0-.06-.39q-3.07-6.35-5.72-12.87-3.19-7.94-6.91-15.64a41.81,41.81,0,0,0-5.24-8c-.34-.44-1.81-2.2-4.39-5.31q-2.21-2.65-4.53-5.2c-.18-.21-.21-.2-.09,0l2.7,4.73a40.59,40.59,0,0,1,2.33,4.89c.73,1.84,1.46,3.67,2.18,5.51q.79,2,2,5.55c1.07,3,2.12,5.67,3.12,7.92A42.15,42.15,0,0,0,264,262Q267.6,265.95,271.16,269.91ZM52.69,367.86c.21.43.15.47-.16.1Q49,363.76,45,359.75,42.73,357.47,34,347A23.45,23.45,0,0,1,30.62,342a24.73,24.73,0,0,1-2.15-9.66,90.27,90.27,0,0,0-1.17-14.22,22.37,22.37,0,0,0-3.08-7.84c-.35-.52-1.44-2-3.29-4.46a18.12,18.12,0,0,1-2.56-5.08,10.25,10.25,0,0,1,.15-6.32,38.84,38.84,0,0,1,3.66-7.95q2.76-4.75,5.09-9.73A29.91,29.91,0,0,0,30,264.91a7.2,7.2,0,0,0-.36-3A3.06,3.06,0,0,0,27,260a10.76,10.76,0,0,0-2.82.32c-.93.2-1.87.38-2.8.54a21.23,21.23,0,0,1-6.84.06,18.81,18.81,0,0,1-6.37-2.19,17.63,17.63,0,0,1-8-9.77c-.16-.43-.08-.47.22-.14A29.33,29.33,0,0,0,5,253a16.45,16.45,0,0,0,9.29,3.15,17.24,17.24,0,0,0,11.22-3.57,13.58,13.58,0,0,0,5.45-9.45,9.21,9.21,0,0,0-1-5.67,4.51,4.51,0,0,0-1.09-1.36,4.21,4.21,0,0,0-1.53-.75,11.23,11.23,0,0,0-4.33-.36,2.55,2.55,0,0,0-2.1,1.42c-.06.13-.09.12-.07,0a16.91,16.91,0,0,1,1.67-5.41A75,75,0,0,1,32.89,215.6l.64-.7a16.39,16.39,0,0,0,4.19-9.23q.49-4.11-3.61-3.85A15.06,15.06,0,0,0,29.58,203q-6.49,2.61-12.79,5.71c-.88.44-1,.35-.38-.26a2.54,2.54,0,0,1,.24-.2c1.89-1.35,3.8-2.7,5.71-4,1-.68,2.94-1.91,5.87-3.68q2.1-1.27,4.08-2.7a38.91,38.91,0,0,0,3.84-3,10,10,0,0,0,2.79-8.47,4.8,4.8,0,0,0-1.57-3.51,2.24,2.24,0,0,0-2.69-.07.51.51,0,0,1-.7-.19l0-.06q-2.24-5.69.92-9.43a11.59,11.59,0,0,1,4.66-3,38.54,38.54,0,0,1,5.39-1.69,6.46,6.46,0,0,0,1.86-.76,5.77,5.77,0,0,0,1.48-1.3,9.22,9.22,0,0,0,2.18-7.45,6,6,0,0,0-3.21-4.91A11,11,0,0,0,42,153a21.57,21.57,0,0,0-7.61,1.58c-.14.06-.24.06-.28,0s0-.2.11-.28h0A95.16,95.16,0,0,1,44.54,148a53.93,53.93,0,0,0,5.91-4.09,46.93,46.93,0,0,1,5.94-4,49.59,49.59,0,0,1,7.07-3.07,25.86,25.86,0,0,0,5.12-2.54q6.58-4.15,4.42-11.65a4.37,4.37,0,0,0-4.1-3.25A24.52,24.52,0,0,0,57,120.92c-.72.28-.81.18-.26-.28a1.07,1.07,0,0,1,.22-.15q3.49-2.05,7.06-4a42,42,0,0,1,21.46-5.06q5.35.15,10.87.5a.32.32,0,0,0,.34-.29.59.59,0,0,0,0-.14,23.75,23.75,0,0,1-1.14-3.91,13.8,13.8,0,0,1-.19-4.05,19,19,0,0,1,2-6.84,17.91,17.91,0,0,1,4.49-5.34A37.55,37.55,0,0,1,113,84.93a7.8,7.8,0,0,0,1.39-.69,7.12,7.12,0,0,1,1.41-.71c.64-.22.72-.09.23.38a27.25,27.25,0,0,0-6.68,10q-1.47,3.92,1.46,4.77a7.16,7.16,0,0,0,4-.22,19.43,19.43,0,0,0,8.06-4.66,37.86,37.86,0,0,0,6.51-8.19l2.79-4.72A29.18,29.18,0,0,1,143.47,70c.43-.23.48-.16.16.2a14,14,0,0,0-2.24,3.45,6.78,6.78,0,0,0-.66,3.94,5.2,5.2,0,0,0,2.32,3.66A5.53,5.53,0,0,0,147,82a10.39,10.39,0,0,0,7-4.19A128.2,128.2,0,0,1,162.43,68c.36-.38.44-.36.23,0-.67,1.31-1.39,2.6-2.18,3.85a3.48,3.48,0,0,0-.66,1.76,2.39,2.39,0,0,0,1,1.82,4.58,4.58,0,0,0,1.73.91,5.26,5.26,0,0,0,1.91.09,16.55,16.55,0,0,0,7-2.45,25.17,25.17,0,0,0,7.36-7.2,24.63,24.63,0,0,1,4.33-4.6q3.57-3,7.17-6a9.24,9.24,0,0,0,1.6-1.66c.15-.2.23-.18.25.07a51.84,51.84,0,0,0,2,11.12c.05.16.13.18.23,0q3.75-4.61,7.48-8.92a51.79,51.79,0,0,1,3.63-3.78,19.85,19.85,0,0,1,10-5.08,30.88,30.88,0,0,1,3.07-.51c.59,0,.59.09,0,.31a8.57,8.57,0,0,0-5.19,4.91,28.18,28.18,0,0,0-1.76,5.87c-.06.34,0,.38.26.13a9,9,0,0,1,1.67-1.38,9.73,9.73,0,0,1,2-.9,71.92,71.92,0,0,1,7.88-2.33c3.23-.75,5.17-1.23,5.83-1.42a41.52,41.52,0,0,0,5.65-2A26.62,26.62,0,0,0,239.51,48c.24-.18.3-.14.16.13a112.08,112.08,0,0,1-7.29,12.49,99.69,99.69,0,0,0-5.62,9.29A17.15,17.15,0,0,0,225,75.64a52.65,52.65,0,0,0-.45,8,.42.42,0,0,1-.41.43h0a21.25,21.25,0,0,0-3.55.1q-12.48,1.5-24.51,4.1-8.27,2.39-16.21,5.55A182.61,182.61,0,0,0,141.3,115a195.85,195.85,0,0,0-17.11,13.7,217.79,217.79,0,0,0-15.52,15.47q-7.36,8.12-14,16.89T82.32,179.22c-15.52,24.87-26.72,52.39-34,81a313.33,313.33,0,0,0-8.59,52.85q-.14,7.21,0,13.66a92.11,92.11,0,0,0,1.63,14.5A62,62,0,0,0,50,363,45.14,45.14,0,0,1,52.69,367.86ZM197.5,75.45a.44.44,0,0,1-.39.22.73.73,0,0,0,.7-.07l.2-.13a11.4,11.4,0,0,0,5.6-1.44,13.67,13.67,0,0,0,2.65-1.94c.79-.74,1.48-1.53,2.16-2.26a19.39,19.39,0,0,1,4.39-3.74c1.66-1.07,3.5-2,5.31-3.06A20.33,20.33,0,0,0,212,64.47a15.09,15.09,0,0,0-2.85,1.59,15.93,15.93,0,0,0-2.41,2.21,31.26,31.26,0,0,1-4.1,4.24,18.61,18.61,0,0,1-3.32,2.08l.2-.16a10.67,10.67,0,0,0,1.83-2.08,21.4,21.4,0,0,0,2.35-4.84c.58-1.66,1.05-3.31,1.55-4.92A40.25,40.25,0,0,1,207,57.75a11.65,11.65,0,0,0-3.48,4.12,34,34,0,0,0-2.06,4.86c-.58,1.63-1.1,3.22-1.75,4.74a19.29,19.29,0,0,1-1.11,2.23l-.32.56-.36.53-.36.54,0,.06-.15.06Zm-16.71,1.81c.62-1.25,1.12-2.45,1.65-3.62s1-2.32,1.57-3.46,1.11-2.25,1.69-3.39,1.21-2.29,1.79-3.56a10.62,10.62,0,0,0-3.27,2.52,14.68,14.68,0,0,0-3.53,7.38A10.64,10.64,0,0,0,180.79,77.26ZM138.27,99.41c2.53-4.11,6.35-6.49,10.3-9a41.38,41.38,0,0,0,5.8-4.25,12.06,12.06,0,0,0,2.35-2.91,6.25,6.25,0,0,0,.86-3.57,10.4,10.4,0,0,1-4.35,5.07c-1.87,1.29-3.9,2.44-5.9,3.71A28.42,28.42,0,0,0,141.64,93,12.37,12.37,0,0,0,138.27,99.41Zm-7.62,2.42a26.71,26.71,0,0,1,2.26-4.13c.83-1.3,1.71-2.61,2.49-4a14.1,14.1,0,0,0,1.65-4.76A6.75,6.75,0,0,0,136,84a11.06,11.06,0,0,1-.73,4.51,30.68,30.68,0,0,1-1.92,4.07,33,33,0,0,0-2.09,4.35A9.35,9.35,0,0,0,130.65,101.83ZM102,106.74a10.45,10.45,0,0,0,2.29,3.86,7.54,7.54,0,0,0,3.79,2.26,22.14,22.14,0,0,1-2.34-3.35,21.05,21.05,0,0,1-1.55-3.51,26,26,0,0,1-1-3.77c-.24-1.31-.38-2.64-.52-4.11a9.06,9.06,0,0,0-1.29,4.19A11.55,11.55,0,0,0,102,106.74ZM79.62,120a27.64,27.64,0,0,1,4-.15,21.74,21.74,0,0,1,3.72.45A21.51,21.51,0,0,1,91,121.4a30.16,30.16,0,0,1,3.61,1.73,7.83,7.83,0,0,0-2.72-3.32,10.71,10.71,0,0,0-8.39-1.75A7.94,7.94,0,0,0,79.62,120ZM54.37,149.35a52.29,52.29,0,0,1,6.68-3.1,11.29,11.29,0,0,1,3.35-.58c1.11,0,2.3.17,3.57.29a15.08,15.08,0,0,0,7.79-1.2c.29-.13.57-.27.84-.41-.92.79-1.87,1.55-2.85,2.25-2.15,1.56-4.45,2.94-6.74,4.4a57.15,57.15,0,0,0-6.71,4.8,26.78,26.78,0,0,0-3,3,8,8,0,0,0-1.15,1.82,3.83,3.83,0,0,0-.32,2.09,5.63,5.63,0,0,1,2.27-3.11c1-.81,2.15-1.58,3.26-2.33,2.23-1.46,4.55-2.83,6.85-4.29A45.52,45.52,0,0,0,74.9,148a20.15,20.15,0,0,0,4.23-5.42,10.1,10.1,0,0,0,2.3-3,16.18,16.18,0,0,1-6.3,3.48,18.07,18.07,0,0,1-6.94.6,23.31,23.31,0,0,0-3.9-.18,11,11,0,0,0-3.91,1.09A20.17,20.17,0,0,0,54.37,149.35Zm-12.08,48.1a27.7,27.7,0,0,0,5.39-5.26c1.58-1.95,3-4,4.37-6s2.73-4,4.18-6A53,53,0,0,1,61,174.59,20,20,0,0,0,54.86,179a41.31,41.31,0,0,0-4.72,5.89c-1.4,2.06-2.67,4.17-3.94,6.28S43.66,195.33,42.29,197.45ZM37.47,223.7c1-1,2-2,2.92-3a41,41,0,0,0,2.84-3.33,15,15,0,0,0-4,1.94,20.94,20.94,0,0,0-3.4,2.83,21.42,21.42,0,0,0-2.76,3.45,15.31,15.31,0,0,0-1.86,4,40.4,40.4,0,0,0,3.27-2.9C35.49,225.7,36.48,224.7,37.47,223.7Z"/></g></g></svg>