<svg xmlns="http://www.w3.org/2000/svg" viewBox="0 0 249.84 406.51"><defs><style>.cls-1{fill:#959595;}</style></defs><g id="Layer_2" data-name="Layer 2"><g id="OBJECTS"><path class="cls-1" d="M197.67,122.41s23.84,57.89,0,112.86c-23.2,53.51-84.16,95.35-70,114.32-10.7-24.32,57.4-41.35,92.91-97.29C244.8,214.08,239.51,151.11,197.67,122.41Z"/><path class="cls-1" d="M238.53,189.06s20,63.24-72,121.13c-8.27,6.32-13.63,11.19-19,21.89,16.06-22.87,51.57-19.95,85.62-68.6S238.53,189.06,238.53,189.06Z"/><path class="cls-1" d="M169.19,80.24c6.92-1.45,17.19-1.9,24.59,5.2C178.7,57.22,146.1,54.79,146.1,54.79s11.68-.49,19.46.48c-19.69-13.69-45-10.82-50.83-9.93.4-8.49-.29-22.11-6.73-35C97.62-10.4,92.43,6.46,92.43,6.46s-4.87,10.38-6.49,20.43c-.11.71-.21,1.35-.31,2A28.42,28.42,0,0,0,66.81,9.38c6.48,4.87,12.32,19.14,12.32,19.14S67.46,15.22,47,23c5.28-.26,5.61,11.74,5.56,16.2l-.05,0c-13.95-28.54-19.78-35.35-22-34.7s-15.57,36-1.95,59.35C13.62,84.62,10.38,96.62,0,99.87c6.61-.29,12.78-2.88,17.66-5.73C32.87,82.79,41.51,60.3,41.51,60.3,42.1,67.94,34.7,85.16,19.23,94c-6.07,6.51-12.37,16.58-8.85,28.23,3.57-11.35,9.08-14.59,9.08-14.59s-11,12-6.16,25S22.38,166,22.38,166,14,205.59,14.59,220.51c-12,24.65-22,41.19-1.62,58.05,3.57,18.49,6.81,22.38,14.27,22.38h1.14c29.25,9.76,39.48-35.68,40.73-41.87,0-.23.09-.46.13-.69,0,0,0,.25-.13.69-6.64,34.34-21.89,52.74-40.73,41.87,0,0,1,9.49,18,7.3s21.4-34.3,27.48-46.7,21.65-27.73,28.46-49.13c3.25-2.8,6.67-5.27,10-8.19C147.79,154.91,124.7,71.81,124.7,71.81c21.47,69.57,4.49,109.25-2.43,121.43C95.15,244.14,12.8,370.92,89.67,406.51,66.32,346.68,173.39,293.17,196,223.12,216.05,161.05,193.7,103,169.19,80.24ZM100.13,14.9c8.56,5.09,8.07,29,7.69,36.58l-.26.26c-.4-6.79-2-28.14-6.94-32.22-5.35,14.59-2.92,36,3.4,43.29C93.53,54.69,92.11,30,100.13,14.9ZM78,80.08C89.19,67,86.27,57.22,86.27,57.22c9.24,23.84-34.54,36-35,61.3C41.51,104.89,66.81,93.22,78,80.08ZM41.51,33.38c-.73,9.25-11.67,19.95-11.67,19.95s7.78-14.6,9.24-18.73-6.57-16.78-6.57-16.78S28.13,27.06,27.4,36.3c-1.21-7.78,4.14-25.54,4.14-25.54S42.24,24.14,41.51,33.38Zm25,10.38S60,79.11,27.89,102.46C41.19,91.11,61.62,61.92,66.48,43.76ZM18.16,245.49c4.87-17,19.46-104.11,19.46-104.11S31.78,209,18.16,245.49Zm20,14.59c-8,5.11-7.3,18.49,1.21,25.78-15.56-3.89-14.1-33.08-3.65-36.48s16.79,10.7,16.79,10.7S46.13,255,38.11,260.08Zm24.81-28.7c-2.68,14.59-2,47.67-9.25,53.27,8.76-26.76,2.19-40.87,8-58.38S96.24,165.7,96.24,165.7,65.59,216.78,62.92,231.38Zm17.83-96a29.23,29.23,0,0,1,2-5.48,8.86,8.86,0,0,0,16.14-4.59,11.44,11.44,0,0,1,1.65,1.31S98.27,139,80.75,135.38Zm12.48-12.69c1.4-.79,3-.57,3.61.48s-.07,2.55-1.48,3.34-3,.57-3.61-.49S91.82,123.47,93.23,122.69Zm-16-1.74c13.62-13.62,23.59-15.81,31.62-7.3C92.59,107.81,77.27,121,77.27,121Zm6.57,275.34c-29.68-45.73-.49-110.91,66.64-174.64C150.48,221.65,52.21,322.35,83.84,396.29Zm73.45-141.56c-47.57,53.8-67.62,102.16-67.62,102.16s8.56-44.65,58.38-101.19c58.73-66.64,31.15-131.15,22-148.32q-1.26-2.25-2.55-4.43s1,1.55,2.55,4.43C191.27,145.11,207.35,198.12,157.29,254.73Z"/></g></g></svg>