<?xml version="1.0" encoding="utf-8"?>
<!-- Generator: Adobe Illustrator 25.2.3, SVG Export Plug-In . SVG Version: 6.00 Build 0)  -->
<svg version="1.1" id="Layer_1" xmlns="http://www.w3.org/2000/svg" xmlns:xlink="http://www.w3.org/1999/xlink" x="0px" y="0px"
	 viewBox="0 0 171.3 267.4" style="enable-background:new 0 0 171.3 267.4;" xml:space="preserve">
<style type="text/css">
	.st0{fill:#959595;}
</style>
<g id="Layer_2_1_">
	<g id="OBJECTS">
		<path class="st0" d="M74.9,123.5c-4,3.4-8.2,6.4-12.6,9.1c-7.8,4.8-16.6,29.5-15.3,42.1c0,0,3,17.4,15,29.2c0,0,3.2,3-0.3,12.9
			s-3,14.8-3,14.8s12.5,21.1,12.9,27.1c0.2,3.5,5.2,3.6,4.8,8.3c-0.1,1,13.8,0,13.8,0c-0.2-2.9-1.8-5.6-4.2-7.2
			c-1.8-1.2-3.7-2.2-5.6-3c0,0-8.3-20.1-8.3-20.9s3.5-14.5,3.5-14.5s10.2,14.5,15,23.3s4,11.3,6.2,11.8c1.2,0.3,2.4,0.7,3.5,1.3
			l1.6,5.4c0,0,11.5,0.5,12.9-1.6c0,0-3.2-7-7.5-9.7s-9.4-5.4-10.7-9.4s-5.1-20.1-5.1-20.1s17.5-19.3,18.5-34.1s-5.4-23.6-5.4-23.6
			s25.6-16.4,32.8-41.6c0,0,14.3-22.6,9.7-38.6S131.8,66,131.8,66s-13.7-17-12.1-23.9l2.2-3.4c5.7,0.4,11.4-0.8,16.5-3.4l5.7-1
			c0,0-0.2,3.8,5.1,3.3l3.4-3.1c0,0,3.9-0.7,3.1-5.8c0,0,1.4-3.8,0.5-5.2s-1.9-1.2-1.9-1.2c-1.4-0.2-2.7-0.8-3.8-1.7
			c-1.6-1.4-7.7-4.1-13.2-5.1s-8.8-7.6-13.4-9.3l2-1c0,0-6.6-9.9-15.3,0.2c0,0-9-2.1-11.1-5.4c0,0-4.2,5.7,3.5,10.9
			c0,0-16.6,12.4-15.6,36.8s4.4,28.1-1.4,49.7S74.9,123.5,74.9,123.5z"/>
		<path class="st0" d="M125.8,117c0,0,8.6,2.1,16.1-2.3c4.7-2.8,9.2-6,13.4-9.6c0,0,1.7,0.6-0.2,8.4s-3.5,8.8-3.5,8.8
			c-1.6,0.2-2.8,1.6-2.7,3.3c-3-0.1-5.8,1.7-7.1,4.4c0,0,1.1,9.4,4,12.1c0,0,7.9-8.8,11.3-13.4s3.6-4.4,4.4-9.4s3.8-15.6,3.8-17.3
			s-6.1-7.3-6.1-7.3s-12.7,1.7-22.1,2.7S118.9,110.3,125.8,117z"/>
		<path class="st0" d="M134.5,127.5c0,0,8.9,0.7,15.6-4.9c4.2-3.6,8.1-7.4,11.7-11.6c0,0,1.8,0.3,1.2,8.4s-2,9.3-2,9.3
			c-1.6,0.5-2.5,2.1-2.1,3.7c-3,0.4-5.5,2.6-6.3,5.5c0,0,2.7,9.1,5.9,11.3c0,0,6.4-10,9-15.1s2.9-5,2.8-10s1.3-16,1-17.7
			s-7.2-6.2-7.2-6.2s-12.2,3.8-21.4,6.2S126.6,122,134.5,127.5z"/>
		<path class="st0" d="M104.7,10.7c0,0-3,47.1-10.8,69.5c-2.1,6-4.4,9.9-6.7,12.6l0,0C80.8,100,74.7,97,74.7,97l4.9-3.3
			c-8.6-0.4-17.5,7.5-17.5,7.5S58.5,87,67,81.7s12.8-16.3,12.8-16.3C75.8,70,68.6,70,68.6,70c4.3-5,5.7-12.3,7.2-20.2
			c1.7-1.8,3.7-3.2,6-4.2c-1.8-0.1-3.6,0.1-5.3,0.6c0.6-3.1,1.3-6.3,2.2-9.4c1.5-0.6,3.1-1,4.7-1c-1.3-0.6-2.7-1-4.1-1.1
			c0.8-2.5,1.8-5,3.1-7.3C88.7,15.3,99,11.7,103,10.9l0,0C103.5,10.7,104.1,10.7,104.7,10.7z"/>
		<path class="st0" d="M54.8,181.5c-1.8,1.5-3.1,3.5-3.8,5.7c-3.8,10.4-0.8,28.2-0.7,28.9l-5.3-7.7c0.6,1.1,17.4,30.6-8.5,42.1
			c-6.3,2.8-11.8,3-16.4,1.6c2-1.5,3.9-3.1,5.7-4.8c-2.1,1.7-6.4,2.7-9.6,3.2c-1.8-1-3.5-2.2-5.1-3.6c5.4-0.9,10.4-3.3,14.4-7
			c-7.2,4.5-14.8,2.8-20.2,0.3c-2.2-3.2-4-6.7-5.4-10.4c6,4,13.8,3.6,19.4-1c7.8-6.1-5.9-29.6,12.3-39.7
			c9.4-5.3,13.5-11.6,15.3-16.6l0,0c1-2.5,1.4-5.2,1.3-7.9C48.2,164.7,64.2,174.6,54.8,181.5z"/>
		<path class="st0" d="M70.6,254.8c0,0,0.5,3.2,0.6,5s3.3,2,4.7,4.1S74.1,255.5,70.6,254.8z"/>
	</g>
</g>
</svg>
