<svg xmlns="http://www.w3.org/2000/svg" viewBox="0 0 2279.41 330.74"><defs><style>.cls-1{fill:#5f5f5f;fill-rule:evenodd;}</style></defs><g id="Layer_2" data-name="Layer 2"><g id="Layer_1-2" data-name="Layer 1"><path class="cls-1" d="M543.89,26.13h75.39l167.6,278.24h-79.2L581.16,94.24,514.54,204.86H622.85l31.64,52.59H482.92l-28.3,46.92H376.25L543.89,26.13ZM1580.61,304.48l-68-.12V26.13h254.77c88.84,0,111.46,117.76,49.44,158.4,27.13,10.13,31.34,44.07,32.68,55.31l2.08,64.53h-67l-2.1-57c-2.07-24.29-17.27-41-41.92-41.06H1611.1l-13.39-57.82h150c23.44,0,36.92-10.91,36.92-31.44,0-19.61-13.48-31.42-36.92-31.42h-167ZM851.4,165.35V130.64c.84-23.87,5.37-47.44,38.57-47.35h209.5v-57H889.13c-65.45-.09-105.68,29.25-106.44,102.24v73.59c.76,73,41,102.33,106.44,102.24h210.36v-57H890c-33.21.09-37.73-23.46-38.58-47.33V165.35Zm452.46,139.23H1366c72.77-.13,102.11-40.35,102.27-106V26.13h-68.75V210.29c-.13,35.08-24.43,39.7-46.51,40.25h-98.29c-22.09-.55-46.4-5.15-46.53-40.25V26.13h-68.68V198.55c.12,65.67,29.42,105.9,102.19,106ZM2036.38,26.13h75.41l167.62,278.24H2200.2L2073.65,94.24l-66.58,110.62h108.27L2147,257.45H1975.4l-28.26,46.92h-78.35L2036.38,26.13ZM0,164.72C0,13.63,112.08,0,173.67,0S347.32,13.63,347.32,164.72c0,147.6-114.36,166-173.65,166S0,312.32,0,164.72Zm238.5-4.95L258,299.06c9.92-5.48,65.82-32.21,65.28-134.34,0-119.34-73.4-150.8-135.77-150.8l51,145.85Zm-64.83-28h7.89v-118l-7.89-.11-7.9.11v118Zm0,185.43c34.2,0,65.67-9.48,78.63-15.69L184.14,152.58h-21L95.28,301.51C108.25,307.72,139.44,317.2,173.67,317.2ZM159.84,13.92c-62.41,0-135.78,31.46-135.78,150.8C23.51,266.85,79.67,293.6,89.61,299.06L108.8,159.77Z"/></g></g></svg>