<svg xmlns="http://www.w3.org/2000/svg" viewBox="0 0 729.41 88.7"><defs><style>.cls-1{fill:#5f5f5f;fill-rule:evenodd;}</style></defs><g id="Layer_2" data-name="Layer 2"><g id="Layer_1-2" data-name="Layer 1"><path class="cls-1" d="M220.83,88.7c-46.61,0-67.47-18-67.47-44.67,0-25.85,20.85-44,67.47-44,46.42,0,67.28,18.09,67.28,44C288.11,70.7,267.34,88.7,220.83,88.7ZM526,85.43l-82.7-.07,0-10.85s8.39-1,11.8-1.43,4.74-3.35,4.73-6.56,0-40.23,0-44-1.72-5.93-5.4-6.46-11.29-1.29-11.29-1.29V3.19H526c37.57,0,53.81,18.27,53.81,40.06C579.83,67.43,563.59,85.43,526,85.43Zm-234.23.29V74.44s9.89-1.09,11.44-1.36c3.73-.65,5.07-3.13,5.07-7V23c0-4.2-1.85-6.53-5.85-7l-10.66-1.23V3.17l58.29,0A8.46,8.46,0,0,1,357,6.75c.33.42,43.53,57.51,43.53,57.51s0-36.92,0-40.81-1.37-6.79-5.33-7.27C394,16,384,14.86,384,14.86V3.17h52.83V14.76s-9.26,1-11.19,1.3c-4.54.71-5.3,3.78-5.32,7.05s0,62.61,0,62.61H378.89a9,9,0,0,1-7-3.16c-1-1.26-43.81-57.92-43.81-57.92s0,38.21,0,42,1.86,6.13,5.22,6.53,11.29,1.29,11.29,1.29V85.72ZM0,85.7l0-11s6.76-.79,10.94-1.3,5.6-3.21,5.6-7.92V23.57c0-4.2-1-7.14-5.48-7.81-1.55-.24-11-1.29-11-1.29V3.15h66L66,14.41s-9.85,1.1-11.15,1.29c-3.38.47-5.27,2.66-5.3,7.38V36.17h50.91V23.37c0-4.09-1.21-7.17-5-7.68s-11.49-1.38-11.49-1.38L84,3.15h66l-.06,11.26s-7.88.93-11.36,1.36-5.1,3.12-5.09,7.54c0,.77,0,38.24,0,43s2.67,6.51,4.84,6.79S150,74.42,150,74.42l0,11.28H84L84,74.38s10-1.11,11.33-1.36c4.51-.91,5.13-4,5.12-7.73s0-12.61,0-12.61H49.56s0,7.66,0,13.22,2.66,7.14,5.18,7.49c3.2.42,11.32,1.32,11.32,1.32v11ZM541.89,44.35c0-20.76-8.39-25.38-28.52-25.38H492.24v50.5h21.13C533.5,69.48,541.89,65.31,541.89,44.35ZM250.18,44.3c0-21.41-10.71-28.45-29.44-28.45s-29.44,7-29.44,28.45c0,21.7,10.7,28.6,29.44,28.6S250.18,66,250.18,44.3Zm376,41.44H573.33V74.47s7.28-1,11.22-1.49a8,8,0,0,0,6-4.36c.45-.7,25.77-41.71,28-45.39s-.12-6.48-3-7c-2-.36-14.63-1.66-14.63-1.66V3.17h64.46c4,.11,6.53,4.65,6.53,4.65l37,56.66c3,4.56,5.27,7.91,8.94,8.46s11.54,1.45,11.54,1.45l0,11.33H658l.06-11.19,9-1.19c4.3-.56,7.92-2.42,4.35-7.66S668,60.5,668,60.5l-50.6.12s-1.57,2.36-4,6.16.14,6.2,3.77,6.64l9,1.13V85.74Zm.43-40,31.86.16L642.34,20.38Z"/></g></g></svg>