<svg xmlns="http://www.w3.org/2000/svg" viewBox="0 0 224.13 17.95"><defs><style>.cls-1{fill:#5f5f5f;}</style></defs><g id="Layer_2" data-name="Layer 2"><g id="Layer_1-2" data-name="Layer 1"><path class="cls-1" d="M213.78,11.24l1.31-.1c.53,0,1.07-.11,1.56-.17a10.57,10.57,0,0,0,3.28-1,6,6,0,0,0,.9-.57,4.09,4.09,0,0,0,1.8-3.36,5,5,0,0,0,0-.78A5,5,0,0,0,222,3,4.71,4.71,0,0,0,220,1.22,11.2,11.2,0,0,0,216.78.3a32.12,32.12,0,0,0-4.63-.3H191V17.53h6.64V11.37h9l10.16,6.18h7.28Zm-3-9.19h.11c.75,0,1.39,0,1.95.1a5,5,0,0,1,1.77.49,2.24,2.24,0,0,1,1.08,1.09,4.06,4.06,0,0,1,.3,1.52s0,.89,0,1.31a3.36,3.36,0,0,1-.27,1.2,2.21,2.21,0,0,1-.67.85l-.26.17a4.51,4.51,0,0,1-1.65.46c-.62.06-1.41.1-2.35.1H197.62V2.05Z"/><path class="cls-1" d="M21.82,0V8.27a6,6,0,0,1-2.74,5.44,12.71,12.71,0,0,1-6.73,1.5H0v2.34H10.25c2.85,0,5.46-.1,7.75-.32A20.31,20.31,0,0,0,23.71,16a7.81,7.81,0,0,0,3.49-2.64,7.5,7.5,0,0,0,1.22-4.05c0-.15,0-.34,0-.55V0Z"/><path class="cls-1" d="M97.89,9.51v5.7H87.75c-5.32,0-8.4-1.69-9.24-5a6.86,6.86,0,0,1,0-3.16c.82-3.34,3.86-5,9.24-5h15.86V0H89.83c-2.89,0-5.51.11-7.8.3a20.39,20.39,0,0,0-5.7,1.22,7.48,7.48,0,0,0-3.48,2.62,7.67,7.67,0,0,0-1.2,4.32V8.9a7.62,7.62,0,0,0,1.23,4.45A7.75,7.75,0,0,0,76.37,16a20.65,20.65,0,0,0,5.7,1.27c2.29.21,4.89.31,7.76.31h14.68V9.51Z"/><path class="cls-1" d="M53.61,0H46.77L31.44,17.55h4l3.45-3.94H58.13l3.45,3.94H69ZM48.48,2.59l8,9.14h-16Z"/><path class="cls-1" d="M162.92,0,147.59,17.55h4l3.45-4h19.25l3.45,4h7.39L169.78,0Zm9.73,11.71h-16l8-9.14Z"/><path class="cls-1" d="M138,0V8.9a9,9,0,0,1-.26,2.09c-.86,3.23-3.92,4.87-9.19,4.89h-.67c-5.29,0-8.38-1.68-9.21-5a8.45,8.45,0,0,1-.24-2V0h-6.64V9.18A7.75,7.75,0,0,0,113,13.77a7.38,7.38,0,0,0,1.93,1.84,9.12,9.12,0,0,0,1.56.8,14.47,14.47,0,0,0,1.89.61,25.75,25.75,0,0,0,3.83.66c1.78.17,3.8.27,6,.27s4.2-.1,6-.27A23.74,23.74,0,0,0,138,17a13,13,0,0,0,1.88-.61,8,8,0,0,0,1.57-.8,6.64,6.64,0,0,0,1.93-1.83,7.85,7.85,0,0,0,1.22-4.6V0Z"/></g></g></svg>