<svg xmlns="http://www.w3.org/2000/svg" viewBox="0 0 923.08 156.74"><defs><style>.cls-1{fill:#5f5f5f;fill-rule:evenodd;}</style></defs><g id="Layer_2" data-name="Layer 2"><g id="Layer_1-2" data-name="Layer 1"><path class="cls-1" d="M109.07,8.55c3.35.09,3,2.45,2.44,3.26-9.9,15.41-33.3,42.53-50.33,72.29-2.82,4.82-4.92,8.37-4.92,13.66a21.32,21.32,0,0,0,13.47,19.3c5.92,2.37,9.65,2.44,16,2.53,47.43,1.47,66.44.19,108.88-1.25a8.06,8.06,0,0,0,5.54-2.66c8.21-8.55,12.94-23.93,12.94-37.5,0-30.22-21.77-57.44-55.72-70.54l-5.45,7c29.76,12.3,45.14,36.87,45.14,63.18a54.43,54.43,0,0,1-2.82,17.13c-1.35,3.82-3,6-7.83,6.08-34.58.74-54.16,1.28-88.84.37-4.47-.09-5.92-1.72-6.64-5.26-.56-2.1-.1-3.85,1.35-6.48C110.7,57.07,142.74,19.83,149,11c1.19-1.63.63-4.92-3.47-6-12-3.55-25.47-5-39.13-5C44.61.25,1,35,0,78.18c2.48,51.8,47.52,78.56,106.43,78.56,36,0,69.07-12.75,88.4-32.95l-17.85.72C160.5,139.17,134.09,147,106.78,147c-49.77,0-90.3-24.75-90.3-69.19,0-38.22,40.52-69.35,90.3-69.35l2.29.09ZM518,102.11,551.66,80l-51-38v9.29H425.31a19.47,19.47,0,0,0-19.4,16.11l87.4-.09V83.91l-66.82.1c-10.56,0-19.21,8-19.67,18.1Zm320.14-51h77.28V34.77H837.7c-29.07,0-52.82,22.2-54,50.06l93.69-.1c6.08,0,11,4,11,8.84s-4.92,8.83-11,8.83H774.23V34.77H743.64V102H682.21c-9-1.47-11.85-8-11.85-20.76V34.77H621L576.69,63.52l-38.6-28.75H419.39c-26.31,0-48.25,18.1-53.07,42.22h23.84a52.34,52.34,0,0,0-19.74,25H294.94c-8.9-1.47-11.82-8-11.82-20.76V34.77H252.62V78.09c-1.28,28.69,14.28,39,32,40.6H521.8l43.7-28.22,38.15,28.6h46.68L590.9,74.36l48.87-31.67.09,35.4c-1.25,28.69,15.84,39,33.61,40.6H895.39c15.29,0,27.69-11.18,27.69-25.11s-12.4-25-27.69-25H818.74a19.21,19.21,0,0,1,19.39-17.48Z"/></g></g></svg>