<svg xmlns="http://www.w3.org/2000/svg" viewBox="0 0 923.08 124.82"><defs><style>.cls-1{fill:#5f5f5f;}</style></defs><g id="Layer_2" data-name="Layer 2"><g id="Layer_1-2" data-name="Layer 1"><path class="cls-1" d="M361.14,21.21h24.1v57.9c0,5.33,3.06,7.48,8.23,7.48h41c5.16,0,8.23-2.15,8.23-7.48V21.21h24.09v61.7c0,13.1-11.23,23-24.1,23h-57.5c-12.82,0-24.11-10-24.11-23V21.21ZM246.87,79.79h24c.4,4.83,3.23,6.8,8,6.8h44.07c4.08,0,6.34-3.5,6.34-7.31,0-5.1-3.73-7.77-8.56-7.77h-48c-15.82,0-26.6-7.72-26.6-24.39,0-8.67,3.41-17.86,11.12-22.51,4.82-3,10.72-3.41,16.28-3.41h56.59c12.26,0,22.12,8.67,22,21.15v4.48H327.28c-.22-3.86-2.49-6.35-6.57-6.35h-41.8c-4.25,0-7.83,2.15-7.83,6.86s3.64,6.41,7.77,6.41h51.22c16.56,0,25.12,11.07,25.12,27.17,0,15.43-7.15,25-23.14,25H270.86c-14,0-23.82-5.6-23.94-20.46ZM817.32,21.21h24.16v57.9c0,5.33,3.07,7.48,8.22,7.48h41.06c5.15,0,8.22-2.15,8.22-7.48V21.21h24.1v61.7c0,13-11.29,23-24.1,23H841.47c-12.87,0-24.16-9.92-24.16-23V21.21ZM614,89.2l-9.47,16.72H577.77l46-84.71h31.47l46,84.71H674.47L665,89.2Zm25.46-46.56L624.28,70.89h30.45ZM476,21.21h74.29c15.94,0,27.73,5.55,27.73,23.42,0,7.71-3,14.46-9.86,18.26a21.89,21.89,0,0,1,11.74,19.84c0,12-7.67,23.19-20.53,23.19H476Zm24.67,65.38h45.82c4.47,0,8.62-2.44,8.62-7.32S551,72,546.53,72H500.71Zm0-32.15h45.82c4.14,0,6.75-2.89,6.75-6.92s-2.55-7-6.75-7H500.71ZM705.83,21.21h80.75c16.11,0,23.89,13.16,23.89,27.84,0,9.53-3.46,18.43-12.2,23,8.51,4.13,12.42,10.66,12.42,20.19v13.72H786.58V92.23c0-8.06-4.47-11-12.25-11H730.68v24.66H705.83ZM730.67,62h45.2c5.83,0,9.75-5.22,9.75-10.72,0-7-5.22-10.77-12-10.77h-43ZM106.73,0c26.72,0,55.36,5.44,78.15,19.91,14.8,9.47,28.58,23.82,28.58,42.52,0,21.84-18.65,37.72-36.52,47-21.26,11-46.39,15.37-70.21,15.37-26.71,0-55.29-5.39-78.09-19.91C13.84,95.44,0,81.09,0,62.43,0,40.49,18.6,24.67,36.52,15.37,57.85,4.37,82.92,0,106.73,0Zm-.22,6.64c-24.84,0-51.61,4.64-73.16,17.63C19.8,32.38,6.41,45.14,6.41,62.09,6.41,82,24.56,96,40.78,104c20.07,9.8,43.55,13.62,65.73,13.62,24.89,0,51.66-4.66,73.21-17.65,13.5-8.16,26.94-20.87,26.94-37.82,0-20-18.09-33.91-34.36-41.85C152.21,10.43,128.74,6.64,106.51,6.64ZM12.76,48.31l40.89-7L66,14.63,78.21,41.34l40.89,7-40.89,7L66,82.12,53.65,55.35Zm89.89,20.36,18-3.17,5.39-12.08,5.39,12.08,18,3.17-18,3.12-5.39,12.08-5.39-12.08ZM140,36.46l18-3.12,5.39-12.13,5.39,12.13,18,3.12-18,3.17-5.39,12.09L158,39.63ZM120.68,93.63l18-3.12,5.39-12.13,5.44,12.13,18,3.12-18,3.17-5.44,12.09L138.66,96.8ZM65.28,98l18-3.12,5.45-12.15,5.38,12.15,18,3.12-18,3.17-5.38,12.09-5.45-12.09ZM156,68.17l18-3.18,5.39-12.08L184.77,65l18,3.18-18,3.12-5.45,12.07-5.39-12.08Z"/></g></g></svg>