<svg xmlns="http://www.w3.org/2000/svg" viewBox="0 0 923.08 180.13"><defs><style>.cls-1{fill:#5f5f5f;}</style></defs><g id="Layer_2" data-name="Layer 2"><g id="Layer_1-2" data-name="Layer 1"><path class="cls-1" d="M602.56,56.41V38.46H480.77V64.1h59.61l-59.61,56.41V141H602.56V115.38h-59l59-56.41ZM884.62,38.46h38.46V141H884.62ZM782.05,75V38.46H743.59V141h38.46V100.64L822.44,141h51.92L816.67,87.18l59-48.72H823.72ZM692.31,38.46v62.18c0,9-2.57,19.87-23.08,19.87s-21.79-10.89-21.79-19.87V38.46H609v65.39c0,30.77,8.34,43.59,59,43.59s62.82-12.82,62.82-43.59V38.46Zm-256.41,0v62.18c0,9-2.57,19.87-23.08,19.87S391,109.62,391,100.64V38.46H352.56v65.39c0,30.77,12.18,43.59,62.82,43.59s59-12.82,59-43.59V38.46ZM266,109c1.92,7.06,6.41,11.54,19.23,11.54,9.61,0,14.1-1.92,14.1-5.13,0-8.33-5.77-8.33-44.87-13.46C216,96.79,217.31,72.44,217.31,68.59c0-32.69,46.15-32.69,62.18-32.69,28.84,0,60.25,9,60.25,34H294.87c-1.28-5.13-7.69-10.25-19.23-10.25-9.61,0-14.74,1.92-14.74,5.76,0,7.06,3.2,6.41,41,12.18,38.46,5.77,42.31,24.36,42.31,34.62,0,34-47.44,32-63.46,32-38.46,0-62.82-8.33-64.1-35.9H266Z"/><path class="cls-1" d="M176.28,62.18c-10.9,9-43.59,21.79-63.46,9L66.67,39.1,59,43.59,176.28,125c-29.49,11.54-63.46,34.62-87.82,55.13L1.28,118c12.82-9.62,42.95-21.16,62.82-8.33l46.8,32.69,6.41-4.49L0,55.77C25,46.79,70.51,18.59,87.82,0Z"/></g></g></svg>