<svg xmlns="http://www.w3.org/2000/svg" viewBox="0 0 788.23 129.67"><defs><style>.cls-1{fill:#5f5f5f;fill-rule:evenodd;}</style></defs><g id="Layer_2" data-name="Layer 2"><g id="Layer_1-2" data-name="Layer 1"><path class="cls-1" d="M93.29,123.07C82.85,116.53,75.16,94,75.16,67.17c0-1,0-2,0-2.92h0c-29-4.56-50-17.06-50.54-31.84l-.08.17c-7.1,8.83-11.16,19-11.16,29.91,0,32,35.13,58.22,79.68,60.54ZM0,64.83C0,29,44.56,0,99.52,0s99.53,29,99.53,64.83-44.56,64.84-99.53,64.84S0,100.64,0,64.83ZM99.52,9.35c10.62,0,19.64,16.1,23,38.57v0c20.65-3.21,35.1-10.63,35.1-19.26,0-11.57-26-21-58.1-21s-58.08,9.38-58.08,21c0,8.63,14.45,16,35.09,19.26v0C79.89,25.45,88.92,9.35,99.52,9.35ZM106,123c44.55-2.32,79.68-28.54,79.68-60.53,0-10.88-4.06-21.08-11.15-29.91l-.09-.18c-.54,14.79-21.51,27.28-50.54,31.85v0c0,1,0,1.94,0,2.92,0,26.81-7.69,49.37-18.12,55.91ZM99.52,49.58c4.61,0,9.22-.19,13.8-.59h0c-2.2-14.39-7.54-24.55-13.79-24.55S87.94,34.6,85.74,49h0Q92.61,49.59,99.52,49.58Zm0,53.31c8,0,14.51-16.62,14.86-37.47h0a161.11,161.11,0,0,1-29.79,0h0C85,86.27,91.54,102.89,99.52,102.89ZM507.84,64.83a49.56,49.56,0,1,1,49.55,49.55,49.56,49.56,0,0,1-49.55-49.55Zm49.55,31.38c15.28,0,27.68-14,27.68-31.38s-12.4-31.38-27.68-31.38-27.66,14-27.66,31.38S542.12,96.21,557.39,96.21ZM663.18,35.93v76.2H642.3V35.93H613.17V18.7H692.3V35.93Zm54.38,55.18v0l-8,21h-24.4L723.7,18.7h26l38.54,93.44H763.85l-8-21,0,0Zm19.13-15.77h13.13l-13-34.19h-.18l-13,34.19h13.13ZM278.31,35.93v76.2H257.43V35.93H228.3V18.7h79.14V35.93Zm34.47,28.9a49.56,49.56,0,1,1,49.56,49.55A49.55,49.55,0,0,1,312.78,64.83Zm49.56,31.38c15.27,0,27.67-14,27.67-31.38s-12.4-31.38-27.67-31.38-27.67,14-27.67,31.38S347.05,96.21,362.34,96.21Zm97.52,15.92h10.59V76.66l36.43-58H482.49L459.86,58,437.24,18.7H412.85l36.43,58v35.47Z"/></g></g></svg>