<svg xmlns="http://www.w3.org/2000/svg" xmlns:xlink="http://www.w3.org/1999/xlink" viewBox="0 0 224.11 17.16"><defs><style>.cls-1{fill:none;}.cls-2{clip-path:url(#clip-path);}.cls-3{fill:#5f5f5f;}</style><clipPath id="clip-path" transform="translate(0 -0.02)"><rect class="cls-1" width="224.13" height="17.18"/></clipPath></defs><g id="Layer_2" data-name="Layer 2"><g id="Layer_1-2" data-name="Layer 1"><g class="cls-2"><path class="cls-3" d="M3.8,2.89l7.72,13.8,8.92,0L28,2.89h3.8V.37H20.4V2.89h3.3L18.18,13,12.58,2.89h4V.37H0V2.89Z" transform="translate(0 -0.02)"/><path class="cls-3" d="M102.07,2.89V.4h15.3V2.89h-3.81V14.18h3.55c3.28,0,5.42-2.14,5.42-5h2.53v7.57h-23V14.16h3.85V2.86h-3.87Z" transform="translate(0 -0.02)"/><path class="cls-3" d="M65,0C57.31,0,53.23,3.8,53.23,8.55s3.92,8.63,11.8,8.63,11.76-3.84,11.76-8.63S72.68,0,65,0ZM64.91,14.6c-2.8,0-4-3.1-4-6.15s1.59-5.89,4.21-5.84,4,2.84,4,6C69.05,11.55,67.79,14.65,64.91,14.6Z" transform="translate(0 -0.02)"/><path class="cls-3" d="M151.12,2.89l7.72,13.8,8.92,0,7.58-13.83h3.8V.37H167.72V2.89H171L165.5,13,159.9,2.89h4V.37h-16.6V2.89Z" transform="translate(0 -0.02)"/><path class="cls-3" d="M212.31,0c-7.68,0-11.76,3.78-11.76,8.53s3.92,8.63,11.8,8.63,11.76-3.84,11.76-8.63S220,0,212.31,0Zm-.07,14.58c-2.81,0-4-3.1-4-6.15s1.58-5.89,4.2-5.84,4,2.84,4,6C216.37,11.55,215.12,14.65,212.24,14.6Z" transform="translate(0 -0.02)"/></g></g></g></svg>